<?xml version="1.0" encoding="utf-8"?>
<!-- Generator: Adobe Illustrator 27.0.0, SVG Export Plug-In . SVG Version: 6.00 Build 0)  -->
<svg version="1.1" xmlns="http://www.w3.org/2000/svg" xmlns:xlink="http://www.w3.org/1999/xlink" x="0px" y="0px"
	 viewBox="0 0 32 32" style="enable-background:new 0 0 32 32;" xml:space="preserve">
<style type="text/css">
	.st0{fill:#281C25;}
	.st1{display:none;}
	.st2{fill:#FCF3EA;}
	.st3{display:inline;fill:#FCF3EA;}
	.st4{display:inline;}
	.st5{fill:#FFFFFF;}
</style>
<g id="Layer_3">
	<rect class="st0" width="32" height="32"/>
</g>
<g id="Layer_2" class="st1">
	<path class="st2" d="M24.9,18.2L24.9,18.2c-0.1-0.3-0.2-0.8-1-2.3c-0.4-0.7-0.9-1.3-1.1-1.6c-0.3-0.4-1.4-1.7-2.4-2.9
		c-0.3-0.4-0.6-0.7-0.8-1c-0.6-0.7-0.7-1.2-0.8-1.6c0,0,0-0.1,0-0.1c0,0,0-0.2,0.1-0.4c0,0,0.1-0.1,0.1-0.1c0.1-0.2,0.2-0.4,0.3-0.7
		c0.1-0.4,0.1-0.8-0.1-1.2c0,0,0-0.1,0-0.1c0-0.1-0.1-0.1-0.1-0.2c0,0,0-0.2,0.1-0.5c0.3-0.7,0.3-0.9,0.4-1c0-0.1,0.1-0.2,0.2-0.3
		c0.3-0.5,0.3-1.1,0-1.5C19.4,2.1,18.6,2,18.3,2c0,0,0,0-0.1,0H16h-2.3c0,0,0,0-0.1,0c-0.2,0-1.1,0.1-1.5,0.9c-0.3,0.5-0.2,1,0,1.5
		c0.1,0.1,0.1,0.2,0.2,0.3c0.1,0.1,0.2,0.2,0.4,1c0.1,0.3,0.1,0.4,0.1,0.5c0,0,0,0.1-0.1,0.2c0,0,0,0.1,0,0.1
		c-0.2,0.4-0.2,0.8-0.1,1.2C12.7,7.8,12.9,8,13,8.2c0,0,0.1,0.1,0.1,0.1c0.1,0.2,0.2,0.4,0.1,0.4c0,0,0,0.1,0,0.1
		c-0.1,0.4-0.1,0.8-0.8,1.6c-0.2,0.3-0.5,0.6-0.8,1c-1,1.2-2.1,2.5-2.4,2.9c-0.2,0.3-0.7,1-1.1,1.6c-0.8,1.4-1,2-1,2.2l0,0.1
		c-0.2,0.9-0.6,2.5,0.6,4.5c0.5,0.9,1.3,1.6,2.3,2c0.9,0.4,1.7,0.5,2,0.5c0.1,0,0.1,0,0.2,0c0.5,0,1.1-0.1,1.7-0.4
		c-0.1,0.3-0.3,0.6-0.5,0.9c-0.6,0.9-1.8,1.7-2.3,1.9c-0.5,0.3-0.8,0.9-0.6,1.4c0.1,0.6,0.7,1,1.3,1H16h4.2c0.6,0,1.1-0.4,1.3-1
		c0.1-0.6-0.1-1.2-0.6-1.4c-0.4-0.2-1.7-1-2.3-1.9c-0.2-0.4-0.4-0.7-0.5-0.9c0.6,0.2,1.3,0.4,1.7,0.4c0.1,0,0.1,0,0.2,0
		c0.4,0,1.2-0.1,2-0.5c0.9-0.4,1.7-1.1,2.3-2C25.5,20.7,25.1,19.1,24.9,18.2z M13.7,3.3H16h2.3c0,0,0.6,0,0.4,0.5
		C18.5,4,18.4,4,18,5.2c-0.3,0.8-0.1,1.2,0,1.4H14c0.1-0.3,0.2-0.7,0-1.4C13.6,4,13.5,4,13.3,3.7C13.1,3.3,13.7,3.3,13.7,3.3z
		 M23.2,22c-0.9,1.6-2.5,1.9-3.2,1.9c-0.1,0-0.1,0-0.1,0c0,0,0,0,0,0c-0.5,0-1.5-0.2-2.3-0.8c-0.3-0.2-0.5-0.2-0.6-0.2
		c-0.3,0-0.4,0.3-0.4,0.7c0,0.9,0.1,1.7,0.9,2.9c0.9,1.3,2.7,2.3,2.7,2.3H16h-4.2c0,0,1.8-1,2.7-2.3c0.8-1.2,0.9-2,0.9-2.9
		c0-0.4-0.1-0.7-0.4-0.7c-0.1,0-0.3,0.1-0.6,0.2c-0.8,0.5-1.8,0.8-2.3,0.8c0,0,0,0,0,0c0,0-0.1,0-0.1,0c-0.7,0-2.3-0.3-3.2-1.9
		c-0.9-1.5-0.6-2.8-0.4-3.6c0.2-0.9,1.5-2.8,1.9-3.3c0.4-0.5,2.3-2.7,3.2-3.8c0.9-1.1,1-1.8,1.1-2.3c0.1-0.3,0-0.7-0.2-1h3.4
		c-0.1,0.3-0.2,0.7-0.2,1c0.1,0.4,0.1,1.2,1.1,2.3c0.9,1.1,2.8,3.3,3.2,3.8c0.4,0.5,1.7,2.4,1.9,3.3C23.8,19.2,24.1,20.4,23.2,22z"
		/>
	<path class="st3" d="M24.8,18.4L24.8,18.4c-0.3-1.2-1.8-3.4-2.1-3.9c-0.3-0.4-1.5-1.9-2.5-3.1c-0.3-0.4-0.6-0.7-0.9-1
		c-0.8-0.9-0.9-1.6-1-2c0,0,0-0.1,0-0.1c0-0.2,0-0.6,0.2-0.9c0-0.1,0.1-0.1,0.1-0.2c0.2-0.3,0.4-0.7,0.2-1.3c0,0,0-0.1,0-0.1
		c-0.1-0.3-0.2-0.5,0-1.2c0.3-0.9,0.4-1.1,0.5-1.2c0-0.1,0.1-0.1,0.2-0.3c0.2-0.3,0.2-0.7,0-1c-0.3-0.5-0.9-0.5-1-0.6c0,0,0,0,0,0
		H16h-2.4c0,0,0,0,0,0c-0.2,0-0.8,0.1-1,0.6c-0.2,0.3-0.1,0.6,0,1c0.1,0.1,0.1,0.2,0.2,0.3c0.1,0.2,0.2,0.3,0.5,1.2
		c0.2,0.7,0.1,0.9,0,1.2c0,0,0,0.1,0,0.1c-0.3,0.6,0,1,0.2,1.3c0,0.1,0.1,0.1,0.1,0.2c0.2,0.3,0.3,0.7,0.2,0.9c0,0,0,0.1,0,0.1
		c-0.1,0.4-0.2,1.1-1,2c-0.2,0.3-0.5,0.6-0.9,1c-1,1.2-2.2,2.7-2.5,3.1C9,15,7.5,17.2,7.2,18.3l0,0.1c-0.2,1-0.5,2.4,0.6,4.3
		c0.5,0.9,1.2,1.5,2.1,1.9c0.8,0.4,1.6,0.4,1.9,0.4c0.1,0,0.1,0,0.2,0c0.7,0,1.9-0.3,2.8-0.9c0,0.8-0.1,1.5-0.9,2.6
		c-0.9,1.2-2.6,2.2-2.7,2.2c-0.3,0.1-0.4,0.5-0.3,0.8c0.1,0.3,0.4,0.5,0.7,0.5H16h4.5c0.3,0,0.6-0.2,0.7-0.5
		c0.1-0.3-0.1-0.6-0.3-0.8c0,0-1.8-1-2.7-2.2c-0.8-1.1-0.9-1.8-0.9-2.6c0.9,0.6,2.1,0.9,2.8,0.9c0.1,0,0.1,0,0.2,0
		c0.3,0,1,0,1.9-0.4c0.9-0.4,1.6-1,2.1-1.9C25.3,20.9,25,19.4,24.8,18.4z M13.2,2.9c-0.3-0.5,0.4-0.5,0.4-0.5H16h2.4
		c0,0,0.7,0,0.4,0.5c-0.2,0.4-0.3,0.3-0.7,1.6c-0.3,1-0.1,1.4,0.1,1.7c0,0,0,0.1,0,0.1h-4.5c0,0,0-0.1,0-0.1
		c0.1-0.3,0.4-0.7,0.1-1.7C13.4,3.2,13.3,3.3,13.2,2.9z M23.7,22.3c-1,1.7-2.7,2-3.4,2c-0.1,0-0.1,0-0.2,0c0,0,0,0,0,0
		c-0.5,0-1.6-0.3-2.4-0.8c-0.3-0.2-0.5-0.3-0.6-0.3c-0.3,0-0.4,0.4-0.4,0.7c0,1,0.1,1.8,1,3.1c1,1.4,2.9,2.4,2.9,2.4H16h-4.5
		c0,0,1.9-1.1,2.9-2.4c0.9-1.3,1-2.1,1-3.1c0-0.4-0.1-0.7-0.4-0.7c-0.2,0-0.4,0.1-0.6,0.3c-0.9,0.6-1.9,0.8-2.4,0.8c0,0,0,0,0,0
		c0,0-0.1,0-0.2,0c-0.7,0-2.4-0.3-3.4-2c-1-1.6-0.7-2.9-0.5-3.8c0.2-0.9,1.6-3,2-3.5c0.4-0.5,2.4-2.9,3.4-4.1c1-1.2,1-2,1.1-2.4
		c0.1-0.5-0.1-1-0.3-1.4c0,0,0-0.1,0-0.1h4c0,0,0,0.1,0,0.1c-0.2,0.4-0.4,0.9-0.3,1.4c0.1,0.5,0.2,1.3,1.1,2.4c1,1.2,3,3.6,3.4,4.1
		c0.4,0.5,1.8,2.6,2,3.5C24.3,19.4,24.6,20.7,23.7,22.3z"/>
	<g class="st4">
		<g>
			<path class="st5" d="M-27.1-134.1c1.3-0.7,3.1-1,3.7-2c2.4-4.4,6.3-5.9,10.8-7.2c1.7-0.5,3.7-2.5,4.1-4.2
				c2-8.1,3.5-16.2,5.2-24.4c0.3-1.6,0.5-3.2,1-5.6c3.6,10.6-5.7,40.2-11.7,42c-1.5,3.1-2.7,5.4-3.6,7.4c-0.4,2-0.3,3.9-1.1,5.1
				C-29-107.6-39.1-92.2-49.6-77c-3,4.3-7.2,7.6-10.8,11.4c-0.5-0.7-1.1-1.5-1.7-2.2c-0.3,0-0.7,0-1,0c-0.6,0.7-1.3,1.3-1.9,2
				c-0.5,0-0.9,0-1.4-0.1c-4.6,1.3-5.9,5-6.7,9.1c-0.3,0.7-0.7,1.3-1,2l0.1,0c-0.3,0-0.6,0.1-0.9,0.1c-6.3,4.5-12.1,9.6-15.2,17
				c-3.3,3.6-6.4,7.4-9.9,10.9c-18,17.8-30.5,39.8-45,60.2c-5.3,7.4-8.8,16-13.1,24c-11.7,24.8-18.9,50.7-16.4,78.3
				c2.8,31.5,18.4,56,45.4,72c32,19.1,65.2,20.3,98.3,1.9c5.1-2.8,10.2-5.8,15.6-7.8c12.4-4.5,24.1,2.7,26.6,15.6
				c1.7,8.9,0.5,17.6-1.8,26.2c-1.7,6.4-4,12.7-5.8,19.1c-0.2,0.8-3,3.3,1,3.1c-0.4,1-0.5,2.2-1.1,3c-1.2,1.6-3.1,2.8-3.8,4.6
				c-1.8,4.5-3.4,9.1-4.4,13.8c-5,23.1-18.7,40.1-37.4,53.6c-7,5.1-14.4,9.6-21.7,14.3c-1.5,1-2.9,1.9-4.4,2.8
				c0.1,0.4,0.3,0.9,0.4,1.3c3.3-0.4,7.1,0.1,10-1.3c16.8-8.6,33.2-17.8,45.6-32.6c7.9-9.4,12.8-20.2,16.3-31.8
				c0.3-1,0.7-2.1,1.3-3.6c1.8,8.8-7.6,29.6-18.3,41.1c-10.6,11.4-23.4,19.7-36.8,27.6c49.1,0,98.2,0,147.4,0
				c-37.9-20.1-60.4-50.4-62.8-94.1c0.7,2.4,1.4,4.8,2.1,7.1c3.5,11.5,6.3,23.2,10.7,34.3c5.8,14.8,16.7,26,29.7,34.9
				c7.7,5.3,15.6,10.3,23.8,14.7c4.2,2.2,9.1,2.9,13.7,4.4c0.3-0.6,0.5-1.3,0.8-1.9c-5-3.3-10-6.6-15-9.9
				c-18.3-11.9-35-25.9-43.4-46.4c-9.5-23.3-18.7-47.1-21.3-72.6c-0.5-4.7,0-9.7,1.1-14.3c2.9-11.9,14.5-18,26.1-13.7
				c5.1,1.9,10.1,4.5,14.7,7.4c50.9,32.5,125.7,6.8,141.8-57.4c4.6-18.6,3.2-36.8-1.7-54.8c-3.2-11.8-7.9-23.3-12.2-34.8
				c-0.9-2.3-3.3-3.9-5-5.9c-0.5-0.6-1-1.2-1.5-1.7c0.2-0.8,0.5-1.5,0.7-2.3c-0.7-1.5-1.3-3-2-4.5c-0.7-1.7-1.3-3.4-2-5.2
				c-0.3,0-0.7,0-1,0c-0.3,0.1-0.7,0.3-1,0.4c-2.2,0.1-4.4,0.2-6.6,0.2c0.7,1.9,1.4,3.7,2.2,5.6c0.2,0.5,0.4,0.9,0.6,1.4
				c-2.9-3.8-6.1-7.4-8.8-11.3c-10.5-15.6-20.2-31.8-31.4-46.7c-16.5-21.9-34.2-42.9-51.2-64.5c-6.3-8-12.2-16.3-17.8-24.7
				c-2.3-3.5-3.5-7.8-4.9-11c2.1-3.1,3.8-5.6,5.5-8.2c-0.3-0.3-0.7-0.5-1-0.8c-1.1,0.9-2.2,1.8-3.6,3.1c0-3.2,0-5.4,0-7.7
				c0.3-3.5,4.2-6.9,0.4-10.5c-7.2-13.6-13-27.7-15.1-43.1c-1.8-12.9,0.5-24.9,7.8-35.7c1.7-2.5,4.3-4.5,6.5-6.7
				c0.4,0.4,0.9,0.8,1.3,1.2c-1.4,2.2-2.8,4.3-4.1,6.5c-8.2,13.9-9.1,28.6-5.2,43.9c4.5,17.9,12.7,34.1,24.1,48.4
				C122.3-80.9,152.7-44,182.8-7c18.2,22.3,34,46.1,44.4,73.2c1.5,3.9,4.1,7.4,5.4,11.4c1.1,3.5,0.5,7.4,1.5,11
				c8.3,29.8,6.9,59-6.1,87.3c-3.5,7.6-8.3,14.8-13,21.7c-8,11.7-17.6,22.1-29.5,29.8c-35.6,23.1-81.3,22.6-115.3-5.6
				c-3.6-3-6.8-6.4-10.5-9.2c-5-3.8-9.8-2.9-13.3,2.3c-3.8,5.7-4.3,12.1-3.8,18.7c1.2,16.5,8.1,31.2,14.8,45.8
				c14,30.5,37.6,51.6,66.1,68c3.6,2.1,7.1,4.4,10.4,6.8c5.2,3.8,10.7,6.7,17.5,5.9c1.2-0.1,2.9,0.1,3.8,0.8
				c1.2,1.1,1.9,2.8,2.9,4.2c-1.4,0.9-2.8,2.3-4.2,2.4c-3.1,0.3-6.3-0.1-9.5-0.1c-80.8,0-161.6,0-242.4,0c-2.7,0-5.4,0.3-8-0.2
				c-1.6-0.3-2.9-2-4.3-3.1c1.2-1.2,2.4-3.5,3.5-3.4c14,0.9,23.4-8.6,34-14.9c23.6-13.8,43.3-31.8,56.4-56
				C-7.4,273,1.6,256,3.9,236.5c0.7-5.5,0.3-11.4-1.1-16.7c-2.8-10.3-9.6-12.1-17.1-4.7c-9.6,9.5-20,17.7-32.9,22.1
				c-35.7,12.2-68.6,5.9-98.1-16.6c-27.2-20.8-43.8-48.6-47.8-83c-2.7-23.3,1.8-45.8,10.2-67.5c10.3-26.6,25.4-50.6,42.6-73.2
				c11.4-15,23.7-29.2,35.6-43.8c20.2-24.7,40.7-49.3,60.5-74.3c5.5-6.9,9.3-15.3,13-23.4c3.8-8.4,7.5-17,9.5-26
				c3.8-17.2-0.9-32.6-12.9-45.7c-0.3-0.3-0.4-0.8-0.8-1.5c4.4-1.1,6.6,1.5,8.7,4.2c9.4,12.3,13,26.4,10,41.5
				c-2.3,11.2-6.2,22-9.4,33c-0.4,1.4-0.8,2.9-1.2,4.3C-27.3-134.6-27.3-134.4-27.1-134.1z M-93.7-46.8c-0.2,0.1-0.3,0.1-0.5,0.2
				c-0.2,0-0.5,0-0.7,0.1c-4.4,1.9-7.7,4.8-8.5,9.9c-2.1,2.3-4.2,4.6-6.3,6.9c-0.3,0.3-0.6,0.6-0.9,0.9c-1.3,0.8-2.6,1.5-3.9,2.3
				c-0.2,0.5-0.5,1.1-0.7,1.6c0,0.4,0,0.8,0,1.2c0,0.6-0.1,1.3-0.1,1.9l0.1-0.1c-1.2,1-2.4,2.1-3.5,3.1c-1.1,1.1-2.1,2.3-3.2,3.4
				c0.6,0.2,1.1,0.3,1.7,0.5c0,0-0.1,0.1-0.1,0.1c1.3-1,2.7-2,4-3.1c1.4-1.6,2.7-3.3,4.1-4.9c0.2,0,0.4,0,0.6,0
				c0.8-0.7,1.5-1.4,2.3-2.1c0.7-1.3,1.3-2.6,2-4c2.2-2.3,4.4-4.7,6.7-7c2.3-3.7,4.6-7.3,6.9-11c0.1-0.4,0.3-0.7,0.4-1.1l0.3-0.1
				c0,0-0.2,0.2-0.2,0.2C-93.3-47.5-93.5-47.2-93.7-46.8z M-44.2-105.9c0.5,0,1,0,1.5-0.1c1-1.6,2.3-3.1,2.9-4.9
				c0.3-0.8-0.9-2-1.5-3c-1,1.3-2,2.6-3,4c-0.6,1.4-1.1,2.9-1.7,4.3c0.3-0.1,0.5-0.2,0.8-0.3c0,0-0.1,0.1-0.1,0.1
				C-44.8-105.9-44.5-105.9-44.2-105.9z M161.9-18.9c-0.3,0.3-0.7,0.7-1,1l0.1-0.1c0,0.4,0.1,0.8,0.1,1.1c0.2,0,0.4,0,0.7,0
				c0.4-0.4,0.8-0.7,1.2-1.1c0-0.3,0-0.7,0-1C162.5-18.9,162.2-18.9,161.9-18.9z M-124.1-8.8c0.4-0.4,0.7-0.7,1.1-1.1l-0.1,0.1
				c0-1,0-2.1,0-3.1c-1.3,1.4-2.6,2.9-3.8,4.3c-0.4,0.9-0.8,1.8-1.2,2.7c0,0,0-0.1,0-0.1c-0.7,1-1.3,2-2,3l0,0
				c-0.4,0.4-0.7,0.7-1.1,1.1l0,0c-0.4,0.5-0.7,1-1.1,1.6c0.2,0.5,0.4,1,0.6,1.5c0.6,0,1.1,0,1.7,0c0.3,0,0.5-0.1,0.8-0.1
				c0.9-1.2,1.8-2.4,2.8-3.6c0.7-1.9,1.4-3.8,2.1-5.7c0-0.3,0.1-0.5,0.1-0.8L-124.1-8.8z M-50.1-99.9c-0.3,0.3-0.7,0.7-1,1
				c0,0,0,0,0,0C-50.8-99.2-50.5-99.6-50.1-99.9l0-0.2L-50.1-99.9z M107.9-80.8c0-0.4,0-0.8,0-1.1l0.1,0.1c-0.7-0.7-1.4-1.3-2.1-2
				l0,0c0,0.7-0.1,1.5-0.1,2.2c0,0.2,0,0.5,0,0.7C106.5-81,107.2-80.9,107.9-80.8L107.9-80.8z M-63.1-82.9c0.2-0.3,0.5-0.6,0.7-1
				c3-2.8,6.1-5.5,9-8.4c0.6-0.6,0.3-2,0.4-3.1c-1.1,0.1-2.7-0.2-3.1,0.4c-2.4,3.4-4.6,7-6.9,10.5C-63-84-63-83.4-63.1-82.9
				c-0.3,0.4-0.6,0.7-1,1.1c-0.5,0-1,0.1-1.5,0.1c-0.7,0-1.4,0-2,0c-0.1,1.1-0.2,2.1-0.3,3.2c-4.8,3.3-9.1,7-10.7,12.8
				c-5.2,2.3-8.8,5.9-9.7,11.8c-0.6,0.6-1.2,1.3-1.8,1.9c-0.2,0.4-0.3,0.7-0.5,1.1c0.1,0,0.1,0,0.2,0.1c0.1-0.4,0.2-0.8,0.3-1.1
				c0.6-0.4,1.3-0.8,1.9-1.2c6.7-0.5,8.3-6.2,10.9-10.9c5.3-3.6,10.4-7.5,10.7-14.7c0.1-0.4,0.2-0.7,0.3-1.1c0.7-0.7,1.3-1.4,2-2
				C-63.8-82.2-63.5-82.6-63.1-82.9z M127.9-55.9c0,0.7,0,1.4,0,2.1c1.3,1.3,2.6,2.6,3.8,3.8c1.6,0.5,3.3,0.9,4.9,1.4
				c-0.2-1.7-0.1-3.5-0.7-5c-0.5-1.3-1.9-2.1-3-3.2c-0.6-0.2-1.1-0.4-1.7-0.6c-0.4-0.1-0.9-0.3-1.3-0.4c-0.1-0.5-0.3-0.9-0.4-1.4
				c-0.4-0.9-0.9-1.8-1.3-2.6c-0.4,0-0.9,0-1.3,0.1c-1-0.1-2-0.3-3.1-0.4c0,0.4,0.1,0.9,0.1,1.3c0.8,0.8,1.7,1.6,2.5,2.4
				c0.2,0.1,0.3,0.1,0.5,0.2C127.2-57.6,127.5-56.7,127.9-55.9z M-140.1,14.1C-140.1,14.1-140.1,14.1-140.1,14.1
				c0.9-0.8,1.8-1.5,2.8-2.2c-1-1.2-2.1-2.5-3.1-3.7c-0.9,1.6-1.9,3.1-2.8,4.7C-142.2,13.3-141.1,13.7-140.1,14.1z M-32.1-125.9
				c-1.9,2.4-3.8,4.8-5.7,7.2c0.7,0.2,2,0.8,2,0.7C-34.5-120.6-33.3-123.3-32.1-125.9C-32.1-125.9-32.1-125.9-32.1-125.9z
				 M-181.4,96.1c1.1-3.2,2.3-6.4,3.4-9.6c-0.6-0.2-1.1-0.4-1.7-0.6c-3.7,2.1-2.9,5.9-3.4,9.3c-3.8,10.1-5.1,28-2.2,33.4
				c0-4.7-0.5-9,0.1-13.2C-184.3,108.9-182.7,102.5-181.4,96.1z M219.3,76c1.6,4.7,2.8,9,4.5,13.1c0.5,1.2,2.5,2,4,2.3
				c0.6,0.2,2.4-1.3,2.3-2c-0.1-1.3-0.9-2.7-1.8-3.8C225.6,82.5,222.6,79.5,219.3,76z M230.9,104.7c-0.6,0.1-1.2,0.1-1.8,0.2
				c-0.6,1.7-2,3.7-1.5,5c0.8,2.3,2.8,4.3,4.3,6.3c0.9-1.3,2.8-2.9,2.5-4C233.7,109.6,232.1,107.2,230.9,104.7z M216.6,171.3
				c2.2,2.3,3.6,3.7,5,5.2c1.3-1.5,3.7-3.1,3.6-4.5c-0.1-1.6-2.2-3.4-3.9-4.5C220.8,167.3,218.8,169.5,216.6,171.3z M186.1,27.8
				c-1.7,2.4-3.7,3.9-3.5,5.1c0.2,1.4,2.6,3.8,3.5,3.6c1.6-0.4,3.5-2.2,4.1-3.8C190.4,31.8,188,30.1,186.1,27.8z M-180,106.9
				c-0.2,0-0.5,0-0.7,0c0,9.2,0,18.5,0,27.7c0.2,0,0.5,0,0.7,0C-180,125.4-180,116.2-180,106.9z M180.8,25.8c-0.9-2.6-1.8-5-2.9-8.1
				C175.4,22.8,176.5,25.4,180.8,25.8z M189.2,15.6c0.4-0.3,0.8-0.5,1.2-0.8c-2.4-3.6-4.8-7.1-7.2-10.7c-0.4,0.3-0.8,0.5-1.2,0.8
				C184.4,8.5,186.8,12.1,189.2,15.6z M160.2-21.8c0-0.1,0-0.3,0-0.4c0-0.1-0.2,0-0.4,0c0,0.1,0,0.3,0.1,0.4
				C159.9-21.8,160-21.8,160.2-21.8z"/>
			<path class="st5" d="M22.4-332.1c19.8,0,39.7,0,59.5,0c2,0,4-0.1,6,0.1c9.2,0.9,13.1,8.6,8.3,16.6c-4.8,8-10.2,15.7-13.9,24.2
				c-6.2,14.3-10.4,29.2-8.1,45.1c0.4,2.6,1.2,5.2,2.2,7.7c1.4,3.7,4.1,5.9,8.3,6.1c1.6,0.1,3.5,0.2,4.7,1.1c1.3,1,2.6,3,2.4,4.3
				c-0.2,1.3-2,2.9-3.5,3.5c-1.8,0.7-3.9,0.5-5.9,0.5c-40,0.1-80,0.1-120,0.2c-1.2,0-2.6,0.3-3.4-0.3c-1.6-1.2-3.6-2.7-3.9-4.4
				c-0.2-1.2,1.7-3.5,3.3-4.2c3.4-1.6,7.9-1.4,9.2-5.9c1.6-5.3,3.8-10.9,3.6-16.3c-1-20.8-8.4-39.6-19.8-56.8
				c-0.7-1.1-1.5-2.2-2.3-3.3c-2.6-3.8-3.8-7.9-1.8-12.2c2.2-4.7,6.3-6.1,11.2-6.1C-20.3-332.2,1.1-332.2,22.4-332.1
				C22.4-332.2,22.4-332.2,22.4-332.1z M22.6-323.7C22.6-323.7,22.6-323.7,22.6-323.7c-20,0-40,0-60,0c-8,0-9.7,2.7-6.3,10.2
				c0.5,1.1,1.2,2,1.6,3.1c4.5,10.9,9.7,21.6,13.2,32.8c4.1,13.3,8.2,26.9,3,41c-1.2,3.2,1.4,3.5,3.7,3.5c29.7,0,59.3,0,89,0
				c3.6,0,4.5-1.4,3.9-5c-1-5.4-2.1-10.9-1.7-16.3c1.3-18.3,6.6-35.6,15.4-51.8c1.6-2.9,3.2-5.8,4.5-8.9c2.5-6.3,0.9-8.7-5.8-8.8
				C63-323.7,42.8-323.7,22.6-323.7z"/>
			<path class="st5" d="M-158.2,57.2c4.3-8.1,7.8-16.7,13.1-24c14.6-20.4,27-42.4,45-60.2c3.5-3.4,6.6-7.2,9.9-10.9
				c1,2.3,1.9,4.5,2.9,6.8c-2,3.1-3.8,6.2-6,9.1c-20.4,28.1-41.8,55.6-57.6,86.8c-11.3,22.4-17,45.8-12.1,71
				c2.4,12.6,7.5,24.1,14.4,34.8c2.2,3.4,5.6,6,8.5,8.9c0.3,0.5,0.7,1,1,1.5c0,0,0-0.2,0-0.2c0.1,0.5,0.1,1,0.2,1.5
				c0.4,0.5,0.9,1,1.3,1.5c1.1,0.4,2.2,0.8,3.4,1.2c0.3,0.6,0.6,1.1,0.9,1.7c0.5,0.8,1.1,1.5,1.6,2.3c0.8,0,1.7,0,2.5,0.1
				c8.5,8.4,19.5,11.9,30.6,14.7c19.9,4.9,39.3,2.4,58.2-5.4c5.8-2.4,11.7-4.4,17.5-6.6c0.2,0.5,0.4,1,0.7,1.5
				c-4.2,1.9-8.4,4-12.7,5.8c-23,10.1-46.7,13.4-71.1,5.7c-40.7-12.9-65.6-52.9-60.9-96.8c2.3-21,9.8-40,20.7-57.8
				c1.3-2.2,1.9-4.8,2-7.6c-2.9,1.5-6.5,2.3-4.7,6.6c0,0.2,0,0.4,0,0.6c-1.3,2.4-2.4,4.9-3.8,7.2C-154.3,59.8-156.3,61.3-158.2,57.2
				z M-122.5,11.2c0.5,0.4,1,0.7,1.5,1.1c1.3-1.9,2.6-3.8,3.8-5.8c0.1-0.2-0.9-1.1-1.4-1.7c-1.3,1.6-2.6,3.3-3.9,5
				C-122.7,10.1-122.5,10.8-122.5,11.2z"/>
			<path class="st5" d="M196.4,59c0.6,1.5,1.1,3.2,1.8,4.6c12.2,23.3,17.1,48.1,12.8,74c-6.5,39.1-38.4,74.6-90.5,71.3
				c-17.8-1.1-34-7.1-49.3-16.6c2.2,0.7,4.4,1.1,6.5,2c14.4,6.4,29.1,11.5,45.1,12.1c16.7,0.7,33-1.6,46.7-11.5
				c29.2-20.8,43.8-48.8,40-85.4c-1.8-17.6-7.6-33.7-16-49.1c-1.2-2.2-1.9-4.6-2.9-6.9c0.8,0.1,1.6,0.1,2.4,0.2
				C194.1,55.6,195.3,57.3,196.4,59z"/>
			<path class="st5" d="M165.3,48.7c12.8,17.7,23.3,36.5,28.6,57.8c12.7,50.6-23.6,81-56.5,86.5c-10.3,1.7-21.1-0.3-31.7-0.7
				c-1.7-0.1-3.4-1-4.8-2.6c4.3,0.6,8.5,1.3,12.8,1.8c36.4,4.4,70.3-19.3,78.2-55.1c4.2-18.9,0.5-36.8-8.3-53.7
				c-5.9-11.3-12.7-22.3-19.1-33.4C164.8,49.2,165.1,49,165.3,48.7z"/>
			<path class="st5" d="M29.2,316.9c0-11.7,0-22.9,0-34c0.7-0.1,1.4-0.1,2.1-0.2c0.7,4.1,2,8.2,1.9,12.2c-0.1,3.8-1.7,7.7-2.6,11.5
				c0.6,0.2,1.2,0.3,1.8,0.5c0.7-1.8,1.4-3.7,2.5-6.6c3.4,13.2,10,23.4,18,32.8c1.4,1.7,2.7,3.5,3.7,5.4c1.4,2.8-0.1,4.7-2.8,5.1
				c-4.3,0.5-8.6,0.6-12.9,0.6c-0.6,0-1.7-0.7-1.9-1.3c-2.5-7-5.1-14.1-0.8-21.4c1.8-3.1,0.8-4.2-2.5-4.3
				C33.3,317.3,30.8,317,29.2,316.9z M43.9,331.8c-1.1-2.6-1.8-4.5-2.9-7.1C37.9,331.3,37.9,331.3,43.9,331.8z"/>
			<path class="st5" d="M-134.7,77.5c-7.6,14.4-12.3,29.4-11.4,45.9c1.6,29.3,17,49,42.6,61.5c16,7.8,32.9,8.8,50.2,4.2
				c0.1,0.5,0.2,1,0.3,1.5c-4.3,1.1-8.6,2.5-13,3.1c-31.5,4.4-66.1-15.1-78.6-44.3c-7-16.5-5.9-33.3-0.8-49.9
				c2.4-7.9,6.5-15.3,9.9-22.9C-135.3,77-135,77.2-134.7,77.5z"/>
			<path class="st5" d="M77.2-132.6c3.8,3.7,0,7-0.4,10.5c-2.1,1.8-4.2,3.6-6.7,5.7c-6.7-13.1-18-25.1-14-42.5
				c0.4,5.1,0.9,10.2,1.3,15.6c5.2-2.5,5.2-2.5,5-25.1c0.9,4.6,1.1,9.6,3,13.8C68.8-147.1,73.2-140,77.2-132.6z"/>
			<path class="st5" d="M6.8,306.7c6.4-30.8,13.9-61.5,13.2-93.4c0.5,0,0.9,0,1.4,0.1c-0.4,16.1,0.5,32.4-1.7,48.3
				c-2.1,15.4-7.3,30.4-11.1,45.5C8,307,7.4,306.8,6.8,306.7z"/>
			<path class="st5" d="M-87.3-31.1c-1-2.3-1.9-4.5-2.9-6.8c3.1-7.4,8.9-12.4,15.2-17c0.3,0,0.6,0,0.9-0.1c0,0-0.1,0-0.1,0
				c0.4,0.1,0.7,0.1,1.1,0.2c0.6,0.9,1.2,1.8,1.8,2.6C-76.6-45.1-82-38.1-87.3-31.1z"/>
			<path class="st5" d="M28.9,247.1c-0.3,4.5-0.8,8.9-0.9,13.4c-0.5,16.9-0.8,33.9-1.2,50.8c-0.1,2.1-0.4,4.2-1.7,6.3
				c-0.2-0.9-0.6-1.9-0.5-2.8c0.6-19.2,1.2-38.4,1.9-57.7c0.1-2.8,0-5.7,0.4-8.4C26.8,248.2,28.2,247.7,28.9,247.1L28.9,247.1z"/>
			<path class="st5" d="M10.6,330.3c-1,3.7-2.1,8.4-3.6,13.1c-1.5,4.6-5.8,1.8-8.7,2.5c-0.5,0.1-1.8-2.3-2.4-3.7
				c-1.2-3-3.2-6.3,1.3-8.8c0.4,1,0.8,1.9,1.4,3.3C3,334.3,7.1,332.1,10.6,330.3z"/>
			<path class="st5" d="M-135.6,76.7c4.9-8.3,9.3-16.9,14.7-24.9c8.7-12.8,18.1-25.1,27.2-37.7c1.1-1.6,2.5-3,4.7-3.9
				c-0.6,1.2-1.1,2.4-1.9,3.5C-105.4,35-120,56.2-134.7,77.5C-135,77.2-135.3,77-135.6,76.7z"/>
			<path class="st5" d="M20,288.1c0,8.7,0,17.4,0,26.1c-0.2,0.1-0.4,0.1-0.5,0.2c-0.5-1.5-0.9-3.1-1.5-5c-1.5,0.8-2.8,1.4-5.6,2.9
				C13.4,303,17.4,295.8,20,288.1z"/>
			<path class="st5" d="M-71.3-52c-0.6-0.9-1.2-1.8-1.8-2.6c0-0.7,0-1.4-0.1-2.2c0.8-4.1,2.1-7.8,6.7-9.1c0.5,0.4,0.9,0.7,1.4,1.1
				c0.5,0.9,1.1,1.7,1.6,2.6C-65.4-58.3-65.9-53.3-71.3-52z"/>
			<path class="st5" d="M164.5,49.4c-8.5-11.4-17-22.9-25.5-34.3c0.5-0.4,0.9-0.7,1.4-1.1c8.9,11.1,17.4,22.5,24.8,34.7
				C165.1,49,164.8,49.2,164.5,49.4z"/>
			<path class="st5" d="M55.1-175.8c-2.1-11.4-0.9-22.5,4.4-34.1C58-197.9,56.6-186.8,55.1-175.8z"/>
			<path class="st5" d="M49-184.9c0,9,0,18,0,26.9c-0.5,0-1.1,0-1.6,0c0-9,0-18.1,0-27.1C48-185,48.5-184.9,49-184.9z"/>
			<path class="st5" d="M-2.7-138.3c1.6-10.3,3.3-20.7,4.9-31c0.5,0.1,1.1,0.2,1.6,0.2c-1.6,10.3-3.1,20.7-4.7,31
				C-1.5-138.1-2.1-138.2-2.7-138.3z"/>
			<path class="st5" d="M-8.8-178.3c-0.6-5.8-0.8-10.9-1.7-15.8c-1-5-2.7-9.9-4.1-14.8C-9.2-204.4-5.7-187.4-8.8-178.3z"/>
			<path class="st5" d="M1.7,329c1.4-2.3,2.7-4.7,4.2-6.9c0.3-0.4,2-0.5,2.1-0.2c0.5,0.9,1.1,2.4,0.7,3c-1.4,2-3.2,3.8-4.8,5.6
				C3.2,330,2.5,329.5,1.7,329z"/>
			<path class="st5" d="M-7.2-168.5c-1.2,7.4-2.3,14.9-3.5,22.3c-0.6-0.1-1.3-0.2-1.9-0.3c1.2-7.4,2.4-14.9,3.6-22.3
				C-8.5-168.7-7.8-168.6-7.2-168.5z"/>
			<path class="st5" d="M73.7,350.2c3,1.3,5.7,2.5,8.4,3.7c-0.1,0.5-0.2,1-0.3,1.6c-3.5-0.3-7-0.6-10.7-1
				C72.1,352.8,72.7,351.7,73.7,350.2z"/>
			<path class="st5" d="M0.5-184.7c-1.6-7.9-3.1-15.8-4.7-23.7C-1.4-200.8,1.3-193.1,0.5-184.7z"/>
			<path class="st5" d="M47.5-194.4c1.2-4.9,2.4-9.7,3.6-14.6c0.4,0.1,0.9,0.2,1.3,0.3c-1.1,4.9-2.2,9.7-3.3,14.6
				C48.6-194.2,48-194.3,47.5-194.4z"/>
			<path class="st5" d="M34.1-155c-0.3-5.7-0.6-11.4-1-17.1c0.3,0,0.6-0.1,1-0.1c0.3,5.7,0.7,11.3,1,17
				C34.8-155.1,34.5-155.1,34.1-155z"/>
			<path class="st5" d="M-138.8,182.4c-0.1-0.5-0.1-1-0.2-1.5c5.8-1.6,7.5,3,10,6.5c-1.4-0.2-2.8-0.4-4.2-0.6
				c-0.3-0.6-0.6-1.1-0.9-1.7c0,0,0.2-0.2,0.2-0.2c0-0.3-0.1-0.6-0.2-0.8l0.1,0.1c-0.4-0.4-0.7-0.7-1.1-1.1l0.1,0.1
				C-136.3,182.9-137.6,182.7-138.8,182.4z"/>
			<path d="M-133.2,186.8c1.4,0.2,2.8,0.4,4.2,0.6c0,0.2,0,0.4,0,0.5c-0.9,0.4-1.7,0.8-2.6,1.1
				C-132.1,188.3-132.7,187.5-133.2,186.8z"/>
			<path class="st5" d="M-131.6,189.1c0.9-0.4,1.7-0.8,2.6-1.1c0,0.4,0,0.8-0.1,1.2C-130,189.1-130.8,189.1-131.6,189.1z"/>
			<path class="st5" d="M-139.1,181.1c-0.3-0.5-0.7-1-1-1.5C-139.8,180.1-139.4,180.6-139.1,181.1z"/>
			<path d="M-27.1-134.1c-0.2-0.2-0.2-0.5,0-0.7C-27.1-134.6-27.1-134.4-27.1-134.1z"/>
			<path d="M-148.8,49.9c0-0.2,0-0.4,0-0.6C-148.8,49.5-148.8,49.7-148.8,49.9z"/>
			<path d="M-181.4,96.1c-1.3,6.4-2.9,12.8-3.8,19.3c-0.6,4.2-0.1,8.6-0.1,13.2c-2.8-5.4-1.5-23.3,2.2-33.4
				C-182.5,95.5-181.9,95.8-181.4,96.1z"/>
			<path class="st5" d="M-62.9-84.5c2.3-3.5,4.4-7.1,6.9-10.5c0.4-0.6,2-0.3,3.1-0.4c-0.1,1,0.2,2.5-0.4,3.1c-2.9,2.9-6,5.6-9,8.4
				C-62.6-84.1-62.7-84.3-62.9-84.5z"/>
			<path class="st5" d="M132.9-56.9c1,1,2.4,1.9,3,3.2c0.6,1.5,0.5,3.3,0.7,5c-1.6-0.5-3.3-0.9-4.9-1.4c0.1-0.4,0.1-0.9,0.2-1.3
				c0-0.5,0-1.1,0-1.6l0,0.1c0.4-1.2,0.7-2.3,1.1-3.5C132.9-56.5,132.9-56.7,132.9-56.9z"/>
			<path d="M-180,106.9c0,9.2,0,18.5,0,27.7c-0.2,0-0.5,0-0.7,0c0-9.2,0-18.5,0-27.7C-180.4,106.9-180.2,106.9-180,106.9z"/>
			<path d="M-181.4,96.1c-0.5-0.3-1.1-0.6-1.6-0.8c0.5-3.4-0.3-7.3,3.4-9.3c0.6,0.2,1.1,0.4,1.7,0.6
				C-179.1,89.7-180.2,92.9-181.4,96.1z"/>
			<path class="st5" d="M132.9-56.9c0,0.2,0,0.4,0,0.6c-0.4,1.2-0.7,2.3-1.1,3.5c0,0,0-0.1,0-0.1c0,0.5,0,1.1,0,1.6
				c-0.1,0.4-0.1,0.9-0.2,1.3c-1.3-1.3-2.6-2.6-3.8-3.8c0.3-0.7,0.6-1.4,1-2c0.8-0.5,1.6-1,2.4-1.6
				C131.8-57.3,132.3-57.1,132.9-56.9z"/>
			<path class="st5" d="M-140.4,8.2c0.1,2,0.2,4,0.3,5.9c0,0,0.1,0,0.1,0c-0.4-0.7-0.7-1.4-1.1-2.1c0,0,0,0,0,0
				c-0.7,0.2-1.4,0.5-2.1,0.7C-142.3,11.3-141.3,9.7-140.4,8.2z"/>
			<path class="st5" d="M-127-8.6c1.3-1.4,2.6-2.9,3.8-4.3c0,1,0,2.1,0,3.1c0,0,0.1-0.1,0.1-0.1c-0.4,0-0.7,0-1.1,0.1
				c0,0,0.1-0.1,0.1-0.1c0,0.4,0,0.7-0.1,1.1c0,0,0.1-0.1,0.1-0.1c-0.4,0.4-0.7,0.7-1.1,1.1l0.1,0C-125.7-8.1-126.3-8.4-127-8.6z"/>
			<path d="M123.8-62.3c1,0.1,2,0.3,3.1,0.4c0,0,0.1-0.1,0.1-0.1c0,0.4,0,0.8,0,1.1l-0.1,0c-0.2,0.8-0.3,1.5-0.5,2.3
				c-0.8-0.8-1.7-1.6-2.5-2.4c0.1-0.1,0.2-0.3,0.2-0.4C124-61.7,123.9-62,123.8-62.3z"/>
			<path class="st5" d="M-41.2-113.9c-0.6,1.7-1.3,3.3-1.9,5l0.1,0.1c-0.4-0.4-0.7-0.7-1.1-1.1l0,0
				C-43.2-111.3-42.2-112.6-41.2-113.9z"/>
			<path class="st5" d="M-110.6-28.8c-0.2,0.6-0.4,1.3-0.6,1.9c0,0,0,0,0,0c0,0.4,0,0.7,0,1.1c0,0-0.1-0.1-0.1-0.1
				c-0.1,1-0.2,2.1-0.2,3.1c-0.2,0-0.4,0-0.6,0c0,0,0-0.1,0-0.1c-0.8-1.2-1.6-2.4-2.4-3.7C-113.1-27.3-111.8-28.1-110.6-28.8z"/>
			<path class="st5" d="M126.4-58.6c0.2-0.8,0.3-1.5,0.5-2.3c0.4-0.4,0.9-0.7,1.3-1.1c0.4,0.9,0.9,1.8,1.3,2.6
				c-0.2,0.5-0.4,1-0.6,1.4c-0.7-0.2-1.4-0.3-2.1-0.5C126.7-58.5,126.5-58.5,126.4-58.6z"/>
			<path class="st5" d="M-43.1-108.9c-0.3,0.7-0.7,1.3-1,2l0.1,0c-0.4,0.4-0.7,0.7-1.1,1.1c0,0,0.1-0.1,0.1-0.1
				c-0.3,0.1-0.5,0.2-0.8,0.3c0.6-1.4,1.1-2.9,1.7-4.3c0,0,0,0,0,0C-43.8-109.6-43.4-109.2-43.1-108.9L-43.1-108.9z"/>
			<path d="M160.2-21.8c-0.1,0-0.3,0-0.4-0.1c-0.1-0.1,0-0.3-0.1-0.4c0.1,0,0.3,0,0.4,0C160.2-22.1,160.1-21.9,160.2-21.8z"/>
			<path d="M-123.1-9.8c0-1,0-2.1,0-3.1C-123.1-11.9-123.1-10.9-123.1-9.8z"/>
			<path d="M131.2-57.5c-0.8,0.5-1.6,1-2.4,1.6l0.1,0.1c0-0.4,0-0.7,0-1.1c0,0,0,0.1,0,0.1c0.3-0.3,0.7-0.7,1-1l0,0
				C130.3-57.8,130.8-57.6,131.2-57.5z"/>
			<path d="M105.9-83.9c0.7,0.7,1.4,1.3,2.1,2c-0.7,0.1-1.4,0.1-2.1,0.2C105.9-82.4,105.9-83.2,105.9-83.9L105.9-83.9z"/>
			<path d="M126.8-58.4c0.7,0.2,1.4,0.3,2.1,0.5l-0.1-0.1c0,0.4,0,0.7,0,1.1c0,0,0-0.1,0-0.1c-0.4,0.4-0.7,0.7-1.1,1.1l0.1-0.1
				C127.5-56.7,127.2-57.6,126.8-58.4z"/>
			<path d="M128.9-57.9c0.2-0.5,0.4-1,0.6-1.4c0.1,0.5,0.3,0.9,0.4,1.4c0,0,0,0,0,0C129.5-57.9,129.2-57.9,128.9-57.9L128.9-57.9z"
				/>
			<path d="M-121.8-15.4c0.6,0.2,1.1,0.3,1.7,0.5C-120.6-15.1-121.2-15.2-121.8-15.4z"/>
			<path d="M128.8-55.9c-0.3,0.7-0.6,1.4-1,2c0-0.7,0-1.4,0-2.1c0,0-0.1,0.1-0.1,0.1C128.2-55.9,128.6-55.9,128.8-55.9L128.8-55.9z"
				/>
			<path d="M-63.1-67.8c0.3,0,0.7,0,1,0c0,0,0-0.1,0-0.1C-62.4-67.9-62.8-67.9-63.1-67.8L-63.1-67.8z"/>
			<polygon points="-93.1,-47.9 -92.9,-48.1 -93.1,-48 			"/>
			<path class="st5" d="M123.8-62.3c0.1,0.3,0.2,0.6,0.3,0.9c0,0.1-0.1,0.3-0.2,0.4C123.8-61.4,123.8-61.9,123.8-62.3z"/>
			<path class="st5" d="M105.8-81.7c0.7-0.1,1.4-0.1,2.1-0.2c0,0-0.1-0.1-0.1-0.1c0,0.4,0,0.8,0,1.1c0,0,0.1-0.1,0.1-0.1
				c-0.7,0-1.4-0.1-2.1-0.1C105.8-81.3,105.8-81.5,105.8-81.7z"/>
			<path d="M105.8-81c0.7,0,1.4,0.1,2.1,0.1C107.2-80.9,106.5-81,105.8-81z"/>
			<path d="M107.9-80.8c0-0.4,0-0.8,0-1.1C107.9-81.6,107.9-81.2,107.9-80.8z"/>
			<path d="M105.9-83.9C105.9-83.9,105.9-83.9,105.9-83.9C105.9-83.9,105.9-83.9,105.9-83.9z"/>
			<path d="M128.2-61.9c-0.4,0.4-0.9,0.7-1.3,1.1c0,0,0.1,0,0.1,0c0-0.4,0-0.8,0-1.1c0,0-0.1,0.1-0.1,0.1
				C127.3-61.9,127.7-61.9,128.2-61.9z"/>
			<path d="M-51.2-98.9L-51.2-98.9L-51.2-98.9z"/>
			<path class="st5" d="M-130.1,0.1c0.4,0.3,0.7,0.7,1.1,1c-0.3,0-0.5,0.1-0.8,0.1C-129.9,0.8-130,0.4-130.1,0.1L-130.1,0.1z"/>
			<path d="M-131.1-1.9c-0.4,0.5-0.7,1-1.1,1.6C-131.8-0.9-131.4-1.4-131.1-1.9z"/>
			<path d="M-32.1-125.9C-32.1-125.9-32.1-125.9-32.1-125.9C-32.1-125.9-32.1-125.9-32.1-125.9z"/>
			<path d="M-124.2-8.2c-0.3,0.1-0.6,0.2-0.9,0.3c0.4-0.4,0.7-0.7,1.1-1.1C-124.1-8.7-124.2-8.4-124.2-8.2z"/>
			<path d="M-124.1-8.8c0-0.4,0-0.7,0.1-1.1l-0.1,0.1c0.4,0,0.7,0,1.1-0.1C-123.4-9.6-123.8-9.2-124.1-8.8z"/>
			<path d="M162.9-17.9c-0.4,0.4-0.8,0.7-1.2,1.1c0.1-0.4,0.2-0.7,0.2-1.1c0,0-0.1,0.1-0.1,0.1C162.2-17.9,162.6-17.9,162.9-17.9
				L162.9-17.9z"/>
			<path class="st5" d="M161.9-17.9c-0.1,0.4-0.2,0.7-0.2,1.1c-0.2,0-0.4,0-0.7,0c0-0.4-0.1-0.8-0.1-1.1c0,0-0.1,0.1-0.1,0.1
				C161.2-17.9,161.6-17.9,161.9-17.9z"/>
			<path d="M160.9-18c0,0.4,0.1,0.8,0.1,1.1C161-17.2,160.9-17.6,160.9-18z"/>
			<path d="M162.9-18.9c0,0.3,0,0.7,0,1c0,0,0,0,0,0C162.9-18.2,162.9-18.5,162.9-18.9L162.9-18.9z"/>
			<path d="M161.9-17.9c-0.4,0-0.7,0-1.1,0.1c0.3-0.3,0.7-0.7,1-1l0,0C161.9-18.6,161.9-18.2,161.9-17.9
				C161.9-17.9,161.9-17.9,161.9-17.9z"/>
			<path d="M161.9-18.9c0.3,0,0.7,0,1,0c0,0,0,0,0,0C162.5-18.9,162.2-18.9,161.9-18.9L161.9-18.9z"/>
			<path d="M-45.9-105.6c0.3-0.1,0.5-0.2,0.8-0.3C-45.3-105.8-45.6-105.7-45.9-105.6z"/>
			<path class="st5" d="M-44.1-106.9c0.5,0.3,1,0.6,1.5,0.9c-0.5,0-1,0-1.5,0.1C-44.1-106.3-44.1-106.6-44.1-106.9L-44.1-106.9z"/>
			<path d="M-94.2-46.6c-0.2,0-0.5,0.1-0.7,0.1C-94.7-46.6-94.4-46.6-94.2-46.6z"/>
			<path d="M-93.6-46.9c0,0-0.1,0.1-0.1,0.1c0.2-0.4,0.4-0.7,0.6-1.1c0,0,0,0,0,0C-93.3-47.6-93.4-47.2-93.6-46.9z"/>
			<path d="M-138.8,182.4c1.2,0.2,2.5,0.4,3.7,0.7c-0.8,0.3-1.6,0.5-2.4,0.8C-137.9,183.4-138.4,182.9-138.8,182.4z"/>
			<path class="st5" d="M-137.5,183.9c0.8-0.3,1.6-0.5,2.4-0.8c0,0-0.1-0.1-0.1-0.1c0.4,0.4,0.7,0.7,1.1,1.1c0,0-0.1-0.1-0.1-0.1
				c0.1,0.3,0.1,0.6,0.2,0.8c0,0-0.2,0.2-0.2,0.2C-135.2,184.7-136.4,184.3-137.5,183.9z"/>
			<path d="M-133.9,184.9c-0.1-0.3-0.1-0.6-0.2-0.8C-134,184.3-133.9,184.6-133.9,184.9z"/>
			<path d="M-134.1,184.1c-0.4-0.4-0.7-0.7-1.1-1.1C-134.8,183.4-134.4,183.8-134.1,184.1z"/>
			<path class="st5" d="M-63.2-67.9c0.4,0,0.7,0,1.1,0C-62.4-67.9-62.8-67.9-63.2-67.9z"/>
			<path d="M-88.2-53.9C-88.2-53.9-88.1-53.9-88.2-53.9C-88.1-53.9-88.2-53.9-88.2-53.9z"/>
			<path d="M131.9-52.8c0.4-1.2,0.7-2.3,1.1-3.5C132.6-55.1,132.2-54,131.9-52.8z"/>
			<path d="M131.9-51.4c0-0.5,0-1.1,0-1.6C131.9-52.4,131.9-51.9,131.9-51.4z"/>
			<path class="st5" d="M-109.1-24.9c-0.4-0.4-0.7-0.7-1.1-1.1C-109.8-25.6-109.4-25.2-109.1-24.9z"/>
			<path class="st5" d="M-110.1-25.9c-0.4,0-0.7,0-1.1,0c0,0,0.1,0.1,0.1,0.1c0-0.4,0-0.7,0-1.1c0,0,0,0,0,0
				C-110.8-26.6-110.4-26.2-110.1-25.9z"/>
			<path class="st5" d="M-108-27.9C-108-27.9-108.1-28-108-27.9C-108.1-28-108-27.9-108-27.9z"/>
			<path d="M-124.1-9.9C-124.1-9.9-124.1-9.9-124.1-9.9C-124.1-9.9-124.1-9.9-124.1-9.9z"/>
			<path class="st5" d="M126.9-62c0,0.4,0,0.8,0,1.1C126.9-61.2,126.9-61.6,126.9-62z"/>
			<path class="st5" d="M128.9-55.9c-0.4,0-0.7,0-1.1,0c0.4-0.4,0.7-0.7,1.1-1.1C128.9-56.6,128.9-56.2,128.9-55.9z"/>
			<path class="st5" d="M128.9-57.9c0.3,0,0.7,0,1,0c-0.3,0.3-0.7,0.7-1,1C128.9-57.2,128.9-57.6,128.9-57.9z"/>
			<path class="st5" d="M161.9-18.9c0.3,0,0.7,0,1,0c0,0.3,0,0.7,0,1c-0.4,0-0.7,0-1.1,0C161.9-18.2,161.9-18.6,161.9-18.9z"/>
			<path class="st5" d="M64.3-271.2c-0.9-9.4,12.8-42.8,19.4-46.9C77.2-302.3,70.8-286.8,64.3-271.2z"/>
			<path class="st5" d="M-21.9-276.1c-5.6-13.7-11.1-27.3-16.7-41c0.5-0.2,1-0.4,1.5-0.6C-29.8-304.7-23.5-291.3-21.9-276.1z"/>
			<path class="st5" d="M55.4-272.3c4.4-12.8,8.8-25.6,13.2-38.4c0.6,0.2,1.2,0.4,1.8,0.6c-4.4,12.8-8.8,25.6-13.2,38.4
				C56.5-271.9,55.9-272.1,55.4-272.3z"/>
			<path class="st5" d="M-12.9-271.3c-3.2-10.8-6.5-21.6-9.7-32.5c0.4-0.1,0.9-0.3,1.3-0.4c3.3,10.8,6.6,21.6,9.9,32.4
				C-11.9-271.6-12.4-271.5-12.9-271.3z"/>
			<path class="st5" d="M-7.7-237.3c0-6.3,0-12.6,0-18.9c0.3,0,0.7,0,1,0c0,6.3,0,12.6,0,18.9C-7-237.2-7.3-237.3-7.7-237.3z"/>
			<path class="st5" d="M-15.8-255.4c1.4,6.2,1.9,12.3-1.5,18.3c0-6.1,0-12.2,0-18.4C-16.8-255.5-16.3-255.5-15.8-255.4z"/>
			<path class="st5" d="M62.5-253.9c0.5,5.4,1,10.8,1.5,16.3c-0.5,0-1.1,0.1-1.6,0.1c-3-5.2-1.7-10.8-1.5-16.3
				C61.4-253.8,62-253.8,62.5-253.9z"/>
			<path class="st5" d="M52.5-237c0-6.1,0-12.1,0-18.2c0.3,0,0.7,0,1,0c0,6.1,0,12.1,0,18.2C53.1-237,52.8-237,52.5-237z"/>
			<path class="st5" d="M44.6-250.6c0,4,0,8,0,12c-0.3,0-0.6,0-0.9,0.1c0-4,0-8.1,0-12.1C44-250.6,44.3-250.6,44.6-250.6z"/>
		</g>
	</g>
</g>
<g id="Layer_4">
	<g>
		<path class="st5" d="M13,2.4c0.5,0.7,0.8,1.5,0.8,2.4c0,0.2-0.1,0.4-0.1,0.6c-0.2,0-0.5,0-0.7,0.1C12.8,5.7,12.9,6,13.3,6
			c0,0,0.1,0,0.2,0c0.8,0,1.7,0,2.5,0s1.7,0,2.5,0c0,0,0.1,0,0.2,0c0.5,0,0.5-0.4,0.3-0.5c-0.1-0.1-0.5-0.1-0.7-0.1
			c-0.1-0.2-0.1-0.4-0.1-0.6c0-0.9,0.3-1.6,0.8-2.4c0-0.1,0.1-0.1,0.1-0.1c0.1-0.2,0.2-0.3,0.1-0.5c-0.1-0.2-0.3-0.2-0.5-0.2H16
			c0,0,0,0,0,0s0,0,0,0h-2.6c-0.2,0-0.4,0-0.5,0.2c-0.1,0.2,0,0.3,0.1,0.5C13,2.3,13,2.3,13,2.4z M13.9,2.1H16h2.1
			c0.1,0,0.2,0.1,0.1,0.2c-0.6,1.4-0.8,2.2-0.7,2.7v0c0,0.1,0,0.2,0,0.3c-0.4,0-1,0-1.6,0s-1.2,0-1.6,0c0-0.1,0-0.2,0-0.3v0
			c0-0.5-0.1-1.3-0.7-2.7C13.7,2.1,13.8,2.1,13.9,2.1z"/>
		<path class="st5" d="M24.5,18.2c-0.4-1.1-1.1-2.1-1.8-3c-0.5-0.6-1-1.2-1.5-1.8c-0.8-1-1.7-2.1-2.5-3.1c-0.2-0.3-0.4-0.6-0.5-1
			c-0.2-0.3-0.3-0.7-0.4-1.1c-0.2-0.7,0-1.4,0.5-1.9c0,0,0,0,0-0.1c0,0,0,0,0,0c-0.1,0-0.5-0.1-0.7,0.1c-0.2,0.3-0.6,0.8-0.6,1.8
			c0,0.4,0.1,0.7,0.2,0.9h0c0,0,0.1,0.4,0.5,1.1c0,0,0,0,0,0c0,0.1,0.1,0.1,0.1,0.2c0,0,0,0,0,0c0.6,0.8,0.9,1.4,0.9,1.4l0,0
			c0.1,0.1,0.1,0.2,0.2,0.3c0.1,0.1,0.2,0.3,0.4,0.4l0.5,0.6c0.1,0.2,0.4,0.5,0.7,0.9c0.1,0.1,0.1,0.2,0.2,0.3
			c0.8,1.2,1.7,2.3,2.4,3.6c0.5,0.9,0.7,1.9,0.5,2.9c-0.1,0.5-0.3,1-0.6,1.4c-0.1,0.1-0.2,0.2-0.3,0.4c-0.1,0.1-0.1,0.1-0.2,0.1
			c0,0,0,0,0,0c0,0,0,0,0,0c-0.1,0.1-0.3,0.2-0.4,0.3c-0.3,0.3-0.8,0.4-1.2,0.5c-0.4,0.1-0.8,0.1-1.2,0.1c0,0-0.1,0-0.1,0
			c-0.2,0-0.3,0-0.5-0.1c0,0,0,0,0,0c-0.2,0-0.4-0.1-0.6-0.2c-0.2-0.1-0.5-0.2-0.7-0.3c-0.4-0.2-1,0-1.2,0.5h0c0,0,0,0,0,0
			c0,0.1-0.1,0.2-0.1,0.2c-0.2,0.5-0.2,1.6,0.1,2.6c0.2,0.8,1.4,2.8,1.8,3.4H16h-2.5c0.4-0.6,1.6-2.6,1.8-3.4c0.3-1,0.3-2.1,0.1-2.6
			c0-0.1,0-0.2-0.1-0.2c0,0,0,0,0,0h0c-0.2-0.4-0.8-0.7-1.2-0.5c-0.2,0.1-0.5,0.2-0.7,0.3c-0.2,0.1-0.4,0.2-0.6,0.2c0,0,0,0,0,0
			c-0.2,0-0.4,0.1-0.5,0.1c0,0-0.1,0-0.1,0c-0.4,0-0.8,0-1.2-0.1c-0.4-0.1-0.8-0.2-1.2-0.5c-0.1-0.1-0.2-0.2-0.4-0.3c0,0,0,0,0,0
			c0,0,0,0,0,0c0,0-0.1-0.1-0.2-0.1c-0.1-0.1-0.3-0.2-0.3-0.4c-0.3-0.4-0.5-0.9-0.6-1.4c-0.2-1,0-2,0.5-2.9c0.7-1.3,1.5-2.4,2.4-3.6
			c0.1-0.1,0.1-0.2,0.2-0.3c0.3-0.4,0.6-0.7,0.7-0.9l0.5-0.6c0.1-0.1,0.3-0.2,0.4-0.4c0.1-0.1,0.1-0.2,0.2-0.3l0,0
			c0,0,0.4-0.5,0.9-1.4c0,0,0,0,0,0c0-0.1,0.1-0.1,0.1-0.2c0,0,0,0,0,0C14.7,9.4,14.8,9,14.8,9h0c0.1-0.2,0.2-0.5,0.2-0.9
			c0-1.1-0.3-1.6-0.6-1.8c-0.2-0.2-0.6-0.1-0.7-0.1c0,0,0,0,0,0c0,0,0,0,0,0.1c0.5,0.5,0.7,1.2,0.5,1.9c-0.1,0.4-0.2,0.7-0.4,1.1
			c-0.2,0.3-0.3,0.7-0.5,1c-0.8,1-1.7,2.1-2.5,3.1c-0.5,0.6-1,1.2-1.5,1.8c-0.7,0.9-1.3,1.9-1.8,3C7.1,19.1,6.9,20,7,21
			c0.1,0.7,0.3,1.4,0.6,1.9v0C8,23.5,8.5,24,9,24.4c1.2,0.9,2.6,1.2,4.1,0.7c0.5-0.2,1-0.5,1.4-0.9c0.3-0.3,0.6-0.2,0.7,0.2
			c0,0,0,0.1,0.1,0.4c0,0,0,0.6-0.6,1.7c-0.7,1.5-1.3,2.1-2,2.8c-0.5,0.5-1.2,0.9-1.6,1c-0.1,0-0.3,0-0.4,0c0,0-0.1,0-0.1,0.1
			c0,0.1,0.1,0.1,0.1,0.1c0.1,0,0.2,0,0.3,0h5h5c0.1,0,0.2,0,0.3,0c0.1,0,0.1,0,0.1-0.1c0-0.1-0.1-0.1-0.1-0.1c-0.6,0-0.9,0-1.3-0.3
			c-0.6-0.3-1.2-1.1-1.6-1.5l-0.8-1.1c-0.2-0.3-0.3-0.6-0.5-1c-0.2-0.6-0.3-1-0.4-1.1c0-0.1,0-0.1,0-0.1c0,0,0-0.1,0-0.1
			c0-0.4,0.1-0.6,0.1-0.6c0.1-0.4,0.4-0.5,0.7-0.2c0.4,0.4,0.8,0.7,1.4,0.9c1.5,0.5,2.8,0.2,4.1-0.7c0.6-0.4,1-0.9,1.3-1.5v0
			c0.3-0.6,0.5-1.2,0.6-1.9C25.1,20,24.9,19.1,24.5,18.2z"/>
	</g>
</g>
</svg>
